<svg width="24" height="24" viewBox="0 0 24 24" fill="none" xmlns="http://www.w3.org/2000/svg">
<path opacity="0.4" d="M20.2133 3.9V7.386C20.2133 7.8837 19.808 8.286 19.3133 8.286C18.8153 8.286 18.4133 7.8837 18.4133 7.386V6.072L14.9362 9.549C14.5822 9.903 14.0155 9.903 13.6613 9.549L10.3163 6.204L4.53825 11.985C4.36125 12.162 4.13025 12.249 3.89925 12.249C3.67125 12.249 3.44025 12.162 3.26325 11.985C2.91225 11.6337 2.91225 11.064 3.26325 10.713L9.68025 4.2957C10.0313 3.9447 10.6013 3.9447 10.9523 4.2957L14.2973 7.6407L17.1412 4.8H15.8243C15.3295 4.8 14.9243 4.398 14.9243 3.9C14.9243 3.402 15.3295 3 15.8243 3H19.3133C19.3763 3 19.436 3.006 19.4933 3.018C19.5473 3.03 19.6012 3.045 19.6523 3.066C19.6793 3.078 19.7063 3.09 19.7303 3.102C19.9403 3.213 20.1023 3.402 20.1713 3.633C20.1803 3.6603 20.1896 3.69 20.1952 3.717C20.1952 3.7233 20.1952 3.726 20.1982 3.729C20.2073 3.786 20.2133 3.843 20.2133 3.9Z" fill="#27303F"/>
<path d="M7.55026 15.051V20.1C7.55026 20.598 7.14526 21 6.65026 21H4.01926C3.52126 21 3.11926 20.598 3.11926 20.1V15.051C3.11926 14.556 3.52126 14.151 4.01926 14.151H6.65026C7.14526 14.151 7.55026 14.556 7.55026 15.051Z" fill="#27303F"/>
<path d="M13.8893 11.6067V20.1C13.8893 20.598 13.487 21 12.9893 21H10.3583C9.86325 21 9.45825 20.598 9.45825 20.1V11.6067C9.45825 11.1087 9.86325 10.7067 10.3583 10.7067H12.9896C13.4873 10.7067 13.8893 11.1087 13.8893 11.6067Z" fill="#27303F"/>
<path d="M20.2313 16.854V20.1C20.2313 20.598 19.8293 21 19.3313 21H16.7003C16.2023 21 15.8003 20.598 15.8003 20.1V16.854C15.8003 16.356 16.2023 15.954 16.7003 15.954H19.3313C19.8293 15.954 20.2313 16.356 20.2313 16.854Z" fill="#27303F"/>
</svg>
