<svg width="16" height="16" viewBox="0 0 16 16" fill="none" xmlns="http://www.w3.org/2000/svg">
<path d="M5.34335 5.11145C5.16084 5.29396 5.06034 5.53662 5.06034 5.79473C5.06036 6.32754 5.49383 6.76101 6.02661 6.761H7.72748C7.7705 6.76101 7.80924 6.78692 7.8257 6.82662C7.84216 6.86632 7.83305 6.91209 7.80267 6.94247L4.82843 9.91671C4.45168 10.2935 4.45168 10.9065 4.82843 11.2832C5.20518 11.66 5.8182 11.66 6.19495 11.2832L9.16919 8.30899C9.19957 8.27861 9.24532 8.26948 9.28504 8.28596C9.32474 8.30242 9.35066 8.34118 9.35065 8.38416V10.085C9.35066 10.6178 9.78413 11.0513 10.3169 11.0513C10.575 11.0513 10.8177 10.9508 11.0002 10.7683C11.1827 10.5858 11.2832 10.3431 11.2832 10.085L11.2832 5.82844C11.2832 5.27616 10.8355 4.82844 10.2832 4.82844L6.02663 4.82844C5.76853 4.82844 5.52588 4.92892 5.34335 5.11145Z" fill="#2BC596"/>
</svg>
