<svg width="16" height="16" viewBox="0 0 16 16" fill="none" xmlns="http://www.w3.org/2000/svg">
<path d="M11.0001 5.34336C10.8176 5.16085 10.5749 5.06035 10.3168 5.06035C9.784 5.06036 9.35053 5.49383 9.35054 6.02662V7.72749C9.35053 7.7705 9.32463 7.80925 9.28492 7.82571C9.24522 7.84217 9.19945 7.83306 9.16907 7.80268L6.19483 4.82843C5.81808 4.45169 5.20506 4.45169 4.82831 4.82843C4.45156 5.20518 4.45156 5.8182 4.82831 6.19495L7.80255 9.16919C7.83294 9.19958 7.84206 9.24533 7.82558 9.28505C7.80912 9.32475 7.77036 9.35067 7.72738 9.35065H6.02651C5.4937 9.35067 5.06022 9.78414 5.06022 10.3169C5.06022 10.575 5.16073 10.8177 5.34324 11.0002C5.52576 11.1827 5.76841 11.2832 6.02651 11.2832L10.2831 11.2833C10.8354 11.2833 11.2831 10.8355 11.2831 10.2833L11.2831 6.02663C11.2831 5.76853 11.1826 5.52589 11.0001 5.34336Z" fill="#F04646"/>
</svg>
