<svg width="24" height="24" viewBox="0 0 24 24" fill="none" xmlns="http://www.w3.org/2000/svg">
<path d="M3.57421 18.22C3.95662 18.6024 4.44101 18.8063 4.97639 18.8063H10.6616H13.3384H19.0236C19.559 18.8063 20.0434 18.6024 20.4258 18.22C21.2161 17.4296 21.1906 16.1294 20.3493 15.3646L19.712 14.8037C19.304 14.4213 19.0746 13.9115 19.0746 13.3506C19.0746 13.3506 19.0746 11.9229 19.0746 10.2403C19.0746 6.92609 16.5252 3 12.1912 3H11.8088C7.4748 3 4.9254 6.90059 4.9254 10.2403C4.9254 11.9229 4.9254 13.3506 4.9254 13.3506C4.9254 13.9115 4.69595 14.4468 4.28805 14.8037L3.6507 15.3646C2.80939 16.1294 2.7839 17.4296 3.57421 18.22Z" fill="#97A6BA"/>
<path opacity="0.6" d="M11.9873 22.6304C13.466 22.6304 14.6642 21.4322 14.6642 19.9536H9.31042C9.31042 21.4322 10.5086 22.6304 11.9873 22.6304Z" fill="#97A6BA"/>
</svg>
