<svg width="24" height="24" viewBox="0 0 24 24" fill="none" xmlns="http://www.w3.org/2000/svg">
<path opacity="0.6" d="M15.3679 4.71522C15.3696 4.76248 15.3713 4.80974 15.3713 4.85868C15.3723 5.43163 15.2295 5.99567 14.9561 6.49918C16.0129 7.0948 16.8773 7.98024 17.4472 9.05106C17.9603 8.76375 18.5386 8.61322 19.1266 8.61393C19.1536 8.61393 19.1823 8.61393 19.2091 8.61562C18.4178 6.91073 17.0605 5.53249 15.3679 4.71522ZM8.88865 17.6097C7.81783 17.0397 6.93238 16.1753 6.33676 15.1185C5.83326 15.392 5.26922 15.5347 4.69627 15.5337C4.64751 15.5337 4.60007 15.532 4.55281 15.5303C5.37004 17.223 6.74828 18.5804 8.45321 19.3717C8.45152 19.3447 8.45152 19.316 8.45152 19.2892C8.45076 18.7011 8.60129 18.1227 8.88865 17.6097ZM8.45152 4.85868C8.45152 4.79286 8.45321 4.72704 8.45827 4.6629C6.71153 5.47125 5.30884 6.87395 4.50049 8.62069C4.56462 8.61562 4.63045 8.61393 4.69627 8.61393C5.25108 8.613 5.79782 8.74679 6.28951 9.00381C6.87587 7.92461 7.76219 7.03829 8.84139 6.45192C8.58438 5.96023 8.45059 5.41349 8.45152 4.85868ZM19.1266 15.5337C18.5201 15.5345 17.9243 15.3744 17.4 15.0696C16.8221 16.12 15.9576 16.9845 14.9072 17.5624C15.2119 18.0867 15.3721 18.6825 15.3713 19.289C15.3716 19.2991 15.371 19.3093 15.3696 19.3194C17.023 18.52 18.3576 17.1854 19.1569 15.5321C19.1469 15.5335 19.1367 15.534 19.1266 15.5337Z" fill="#27303F"/>
<path d="M14.6539 19.2152C14.654 19.324 14.6473 19.4328 14.6337 19.5409C14.5546 20.2147 14.2322 20.8364 13.727 21.2892C13.2218 21.742 12.5687 21.9947 11.8903 21.9999C11.2119 22.0051 10.555 21.7624 10.043 21.3173C9.53093 20.8723 9.19904 20.2556 9.10967 19.5831C9.09266 19.4612 9.08421 19.3382 9.08435 19.2152C9.08435 18.4766 9.37775 17.7683 9.9 17.246C10.4222 16.7238 11.1306 16.4304 11.8691 16.4304C12.6077 16.4304 13.316 16.7238 13.8383 17.246C14.3605 17.7683 14.6539 18.4766 14.6539 19.2152Z" fill="#27303F"/>
<path d="M21.869 12.0844C21.869 12.7665 21.6186 13.4248 21.1653 13.9344C20.712 14.444 20.0874 14.7694 19.41 14.849C19.3019 14.8625 19.1931 14.8693 19.0842 14.8692C18.3457 14.8692 17.6373 14.5758 17.1151 14.0536C16.5928 13.5313 16.2994 12.823 16.2994 12.0844C16.2994 11.3458 16.5928 10.6375 17.1151 10.1153C17.6373 9.59302 18.3457 9.29962 19.0842 9.29962C19.2073 9.29948 19.3303 9.30794 19.4522 9.32494C20.121 9.41393 20.7348 9.74279 21.1793 10.2504C21.6239 10.7579 21.869 11.4097 21.869 12.0844Z" fill="#27303F"/>
<path d="M14.6539 4.78487C14.6539 5.15057 14.5819 5.51269 14.442 5.85056C14.302 6.18843 14.0969 6.49542 13.8383 6.75401C13.5797 7.0126 13.2727 7.21773 12.9348 7.35768C12.597 7.49763 12.2348 7.56966 11.8691 7.56966C11.5034 7.56966 11.1413 7.49763 10.8034 7.35768C10.4656 7.21773 10.1586 7.0126 9.9 6.75401C9.64141 6.49542 9.43628 6.18843 9.29633 5.85056C9.15638 5.51269 9.08435 5.15057 9.08435 4.78487C9.08434 4.62185 9.09903 4.45917 9.12823 4.29879C9.24293 3.65082 9.58344 3.06442 10.0894 2.64362C10.5953 2.22282 11.2339 1.99483 11.8919 2.00009C12.5499 2.00535 13.1848 2.24352 13.684 2.67235C14.1831 3.10118 14.5142 3.69295 14.6185 4.34267C14.6423 4.48886 14.6542 4.63675 14.6539 4.78487Z" fill="#27303F"/>
<path d="M7.4388 12C7.43888 12.3657 7.3669 12.7279 7.22698 13.0658C7.08706 13.4037 6.88194 13.7107 6.62333 13.9693C6.36472 14.2279 6.0577 14.4331 5.71979 14.573C5.38189 14.7129 5.01973 14.7849 4.65401 14.7848C4.50589 14.785 4.358 14.7732 4.21181 14.7494C3.56209 14.645 2.97032 14.3139 2.54149 13.8148C2.11266 13.3157 1.87449 12.6808 1.86923 12.0228C1.86397 11.3647 2.09196 10.7261 2.51276 10.2202C2.93356 9.7143 3.51996 9.37379 4.16793 9.25909C4.32831 9.22988 4.49099 9.2152 4.65401 9.21521C5.01975 9.21506 5.38195 9.28698 5.71988 9.42688C6.05782 9.56677 6.36487 9.77189 6.62349 10.0305C6.88212 10.2891 7.08724 10.5962 7.22713 10.9341C7.36703 11.2721 7.43895 11.6343 7.4388 12Z" fill="#27303F"/>
</svg>
