<svg width="24" height="24" viewBox="0 0 24 24" fill="none" xmlns="http://www.w3.org/2000/svg">
<path d="M15.1052 3.37268V6.78952H18.5221L15.1052 3.37268Z" fill="#97A6BA"/>
<path d="M14.4737 8.05263C14.3062 8.05263 14.1455 7.98609 14.0271 7.86765C13.9086 7.7492 13.8421 7.58856 13.8421 7.42105V3H6.74316C6.28136 3.00166 5.83894 3.18585 5.5124 3.5124C5.18585 3.83894 5.00166 4.28136 5 4.74316V19.2568C5.00166 19.7186 5.18585 20.1611 5.5124 20.4876C5.83894 20.8141 6.28136 20.9983 6.74316 21H17.1516C17.6134 20.9983 18.0558 20.8141 18.3823 20.4876C18.7089 20.1611 18.8931 19.7186 18.8947 19.2568V8.05263H14.4737ZM14.9221 12.9221C14.8634 12.9813 14.7935 13.0283 14.7166 13.0604C14.6396 13.0924 14.5571 13.1089 14.4737 13.1089C14.3903 13.1089 14.3078 13.0924 14.2308 13.0604C14.1538 13.0283 14.084 12.9813 14.0253 12.9221L12.5789 11.4695V16.2632C12.5789 16.4307 12.5124 16.5913 12.394 16.7098C12.2755 16.8282 12.1149 16.8947 11.9474 16.8947C11.7799 16.8947 11.6192 16.8282 11.5008 16.7098C11.3823 16.5913 11.3158 16.4307 11.3158 16.2632V11.4695L9.86947 12.9221C9.75055 13.041 9.58924 13.1078 9.42105 13.1078C9.25286 13.1078 9.09156 13.041 8.97263 12.9221C8.8537 12.8032 8.78689 12.6419 8.78689 12.4737C8.78689 12.3055 8.8537 12.1442 8.97263 12.0253L11.4989 9.49895C11.5577 9.43975 11.6275 9.39277 11.7045 9.3607C11.7814 9.32864 11.864 9.31213 11.9474 9.31213C12.0307 9.31213 12.1133 9.32864 12.1903 9.3607C12.2672 9.39277 12.3371 9.43975 12.3958 9.49895L14.9221 12.0253C14.9813 12.084 15.0283 12.1538 15.0604 12.2308C15.0924 12.3078 15.1089 12.3903 15.1089 12.4737C15.1089 12.5571 15.0924 12.6396 15.0604 12.7166C15.0283 12.7935 14.9813 12.8634 14.9221 12.9221Z" fill="#97A6BA"/>
</svg>
