<svg width="24" height="24" viewBox="0 0 24 24" fill="none" xmlns="http://www.w3.org/2000/svg">
<g clip-path="url(#clip0)">
<path d="M18.6391 6.71113C20.8049 9.89544 21.8744 13.4873 21.4746 17.6223C21.4729 17.6398 21.4638 17.6558 21.4494 17.6664C19.8093 18.8707 18.2203 19.6016 16.6536 20.0863C16.6414 20.09 16.6283 20.0898 16.6162 20.0857C16.6041 20.0816 16.5936 20.0738 16.5862 20.0635C16.2242 19.5598 15.8953 19.0289 15.6072 18.4713C15.5907 18.4385 15.6058 18.3989 15.6398 18.386C16.1621 18.1892 16.6588 17.9533 17.1366 17.674C17.1742 17.652 17.1766 17.5981 17.1418 17.5722C17.0404 17.4969 16.94 17.4178 16.8439 17.3387C16.8259 17.3241 16.8017 17.3212 16.7813 17.331C13.6797 18.7633 10.2821 18.7633 7.14376 17.331C7.12339 17.3219 7.09918 17.325 7.08168 17.3394C6.98579 17.4185 6.88512 17.4969 6.78468 17.5722C6.74992 17.5981 6.7528 17.652 6.79067 17.674C7.26841 17.948 7.76509 18.1892 8.2867 18.3869C8.3205 18.3999 8.33656 18.4385 8.31978 18.4713C8.03788 19.0296 7.709 19.5606 7.34033 20.0642C7.32427 20.0846 7.2979 20.0939 7.27297 20.0863C5.71365 19.6016 4.12461 18.8707 2.48451 17.6664C2.47085 17.6558 2.46102 17.639 2.45958 17.6215C2.12543 14.0448 2.80644 10.4233 5.29248 6.71041C5.29847 6.70058 5.30758 6.69291 5.31813 6.68836C6.54137 6.12696 7.85187 5.71394 9.22157 5.47806C9.2465 5.47423 9.27143 5.48573 9.28438 5.50779C9.45361 5.80742 9.64706 6.19168 9.77794 6.5057C11.2217 6.28517 12.688 6.28517 14.162 6.5057C14.2929 6.19839 14.4796 5.80742 14.6481 5.50779C14.6541 5.49684 14.6634 5.48808 14.6747 5.48274C14.686 5.4774 14.6987 5.47577 14.7109 5.47806C16.0814 5.71466 17.3919 6.12768 18.6141 6.68836C18.6249 6.69291 18.6338 6.70058 18.6391 6.71113ZM10.5119 13.5117C10.527 12.4544 9.75613 11.5794 8.78842 11.5794C7.82862 11.5794 7.06514 12.4467 7.06514 13.5117C7.06514 14.5765 7.84372 15.4438 8.78842 15.4438C9.74846 15.4438 10.5119 14.5765 10.5119 13.5117ZM16.8839 13.5117C16.899 12.4544 16.1281 11.5794 15.1606 11.5794C14.2006 11.5794 13.4371 12.4467 13.4371 13.5117C13.4371 14.5765 14.2157 15.4438 15.1606 15.4438C16.1281 15.4438 16.8839 14.5765 16.8839 13.5117Z" fill="#97A6BA"/>
</g>
<defs>
<clipPath id="clip0">
<rect width="24" height="24" fill="white"/>
</clipPath>
</defs>
</svg>
