<svg width="24" height="24" viewBox="0 0 24 24" fill="none" xmlns="http://www.w3.org/2000/svg">
<path opacity="0.4" d="M19.429 5.16632H17.9527V5.84771C17.9527 7.05907 16.9684 8.04329 15.7571 8.04329C14.5457 8.04329 13.5804 7.05907 13.5804 5.84771V5.16632H10.4385V5.84771C10.4385 7.05907 9.45425 8.04329 8.26182 8.04329C7.05047 8.04329 6.06624 7.05907 6.06624 5.84771V5.16632H4.5899C3.71924 5.16632 3.01892 5.86664 3.01892 6.7373V9.67105H21V6.7373C21 5.88556 20.2997 5.16632 19.429 5.16632Z" fill="#27303F"/>
<path opacity="0.4" d="M8.26189 6.92657C8.86757 6.92657 9.34075 6.43446 9.34075 5.84771V4.48493C9.34075 3.87925 8.84864 3.40607 8.26189 3.40607C7.65621 3.40607 7.18302 3.89818 7.18302 4.48493V5.84771C7.1641 6.45339 7.65621 6.92657 8.26189 6.92657Z" fill="#27303F"/>
<path opacity="0.4" d="M15.7571 6.92657C16.3628 6.92657 16.836 6.43446 16.836 5.84771V4.48493C16.836 3.87925 16.3438 3.40607 15.7571 3.40607C15.1514 3.40607 14.6782 3.89818 14.6782 4.48493V5.84771C14.6782 6.45339 15.1514 6.92657 15.7571 6.92657Z" fill="#27303F"/>
<path d="M3.01893 19.324C3.01893 20.1947 3.71924 20.895 4.58991 20.895H19.4101C20.2808 20.895 20.9811 20.1947 20.9811 19.324V10.7688H3V19.324H3.01893ZM9.81388 14.9896L10.9874 14.8193C11.082 14.8003 11.1388 14.7625 11.1767 14.6679L11.6877 13.6268C11.8202 13.3808 12.1798 13.3808 12.3123 13.6268L12.8423 14.7057C12.8801 14.7814 12.9558 14.8382 13.0315 14.8571L14.1861 15.0275C14.47 15.0653 14.5836 15.406 14.3754 15.6142L13.5237 16.447C13.4669 16.5038 13.429 16.5985 13.4479 16.6742L13.6372 17.8287C13.694 18.1126 13.3912 18.3208 13.1451 18.1884L12.0852 17.6395C12.0095 17.6016 11.9148 17.6016 11.8391 17.6395L10.817 18.1884C10.571 18.3208 10.2681 18.1126 10.3249 17.8287L10.5331 16.6552C10.5521 16.5795 10.5142 16.4849 10.4574 16.4281L9.62461 15.6142C9.4164 15.3871 9.52997 15.0464 9.81388 14.9896Z" fill="#27303F"/>
</svg>
