<svg width="24" height="24" viewBox="0 0 24 24" fill="none" xmlns="http://www.w3.org/2000/svg">
<g clip-path="url(#clip0)">
<path d="M12 3C7.03009 3 3 7.02939 3 12C3 15.9766 5.57878 19.3501 9.15479 20.5402C9.60457 20.6235 9.76974 20.345 9.76974 20.1072C9.76974 19.8927 9.76134 19.1836 9.75753 18.4316C7.25364 18.976 6.7253 17.3697 6.7253 17.3697C6.31591 16.3294 5.72602 16.0529 5.72602 16.0529C4.90949 15.4942 5.78757 15.5057 5.78757 15.5057C6.69135 15.5692 7.16724 16.4332 7.16724 16.4332C7.96994 17.8091 9.27267 17.4113 9.78625 17.1814C9.867 16.5996 10.1003 16.2026 10.3576 15.9779C8.35866 15.7503 6.25718 14.9785 6.25718 11.53C6.25718 10.5475 6.60877 9.74454 7.18453 9.11428C7.09108 8.88756 6.78304 7.9722 7.27171 6.7325C7.27171 6.7325 8.02747 6.49061 9.74736 7.65506C10.4652 7.45558 11.2352 7.35563 12 7.35225C12.7649 7.35563 13.5354 7.45558 14.2547 7.65506C15.9725 6.49061 16.7272 6.7325 16.7272 6.7325C17.2171 7.9722 16.9089 8.88756 16.8155 9.11428C17.3925 9.74454 17.7417 10.5474 17.7417 11.53C17.7417 14.9867 15.6363 15.7479 13.6322 15.9707C13.955 16.25 14.2426 16.7977 14.2426 17.6374C14.2426 18.8416 14.2322 19.8108 14.2322 20.1072C14.2322 20.3467 14.3942 20.6274 14.8504 20.539C18.4245 19.3476 21 15.9752 21 12C21 7.02939 16.9705 3 12 3Z" fill="#161614"/>
<path d="M6.99625 15.3962C6.97868 15.4359 6.91607 15.4479 6.85916 15.4206C6.80112 15.3945 6.7685 15.3403 6.78732 15.3004C6.80457 15.2595 6.86719 15.2481 6.9251 15.2756C6.98326 15.3016 7.01639 15.3563 6.99625 15.3962ZM7.38977 15.7473C7.35162 15.7827 7.27702 15.7663 7.22639 15.7104C7.17406 15.6546 7.16427 15.5801 7.20298 15.5441C7.24232 15.5088 7.31467 15.5253 7.36712 15.5811C7.41944 15.6375 7.42961 15.7116 7.3897 15.7474L7.38977 15.7473ZM7.65975 16.1966C7.61068 16.2306 7.5305 16.1987 7.48099 16.1275C7.43199 16.0565 7.43199 15.9711 7.48206 15.9369C7.53175 15.9027 7.61068 15.9335 7.66088 16.0041C7.70981 16.0764 7.70981 16.1617 7.65968 16.1966L7.65975 16.1966ZM8.11626 16.7169C8.0724 16.7652 7.97904 16.7523 7.91065 16.6863C7.84076 16.6218 7.82124 16.5302 7.86523 16.4819C7.90958 16.4334 8.00351 16.447 8.0724 16.5125C8.14186 16.5769 8.16306 16.6691 8.11632 16.7169H8.11626ZM8.70628 16.8926C8.68702 16.9552 8.59705 16.9837 8.50645 16.9571C8.41597 16.9297 8.35675 16.8562 8.375 16.7929C8.39383 16.7299 8.48418 16.7002 8.57547 16.7287C8.66581 16.756 8.72517 16.8288 8.70634 16.8926H8.70628ZM9.37787 16.967C9.38013 17.0331 9.30327 17.0878 9.20815 17.089C9.11247 17.091 9.03511 17.0376 9.03411 16.9728C9.03411 16.9061 9.10921 16.8519 9.20483 16.8503C9.29995 16.8485 9.37787 16.9015 9.37787 16.967ZM10.0375 16.9418C10.049 17.0061 9.98283 17.0723 9.8884 17.0898C9.79554 17.1068 9.70959 17.0671 9.69773 17.0033C9.68619 16.9372 9.75357 16.8712 9.84624 16.854C9.94086 16.8376 10.0255 16.8763 10.0375 16.9418Z" fill="#161614"/>
</g>
<defs>
<clipPath id="clip0">
<rect width="24" height="24" fill="white"/>
</clipPath>
</defs>
</svg>
