<svg width="24" height="24" viewBox="0 0 24 24" fill="none" xmlns="http://www.w3.org/2000/svg">
<path opacity="0.4" d="M22.9624 18.4717C22.9787 18.5199 22.9834 18.5713 22.976 18.6217C22.9686 18.6721 22.9494 18.72 22.92 18.7615C22.8905 18.8031 22.8517 18.8371 22.8066 18.8607C22.7615 18.8843 22.7115 18.897 22.6605 18.8976C22.6176 18.8975 22.5751 18.8888 22.5355 18.8719L20.3123 17.9065C19.4306 18.4982 18.4051 18.84 17.3448 18.8956C16.2844 18.9513 15.2287 18.7188 14.2899 18.2227C15.2406 17.3876 16.0017 16.3589 16.5224 15.2057C17.0431 14.0524 17.3113 12.8012 17.309 11.5358C17.3055 9.97308 16.8827 8.43994 16.0848 7.0963C16.4037 7.0422 16.7266 7.01477 17.0502 7.01428C17.8315 7.0137 18.6054 7.16715 19.3274 7.46585C20.0494 7.76456 20.7055 8.20266 21.2581 8.75511C21.8107 9.30756 22.2489 9.96352 22.5478 10.6855C22.8467 11.4074 23.0003 12.1812 23 12.9626C22.9976 14.052 22.6906 15.119 22.1136 16.043L22.9624 18.4717Z" fill="#27303F"/>
<path d="M14.622 7.54833C14.461 7.30161 14.2856 7.06455 14.0968 6.83839C14.0439 6.77466 13.9896 6.71191 13.9347 6.64966C13.8952 6.6052 13.8552 6.56123 13.8147 6.51775C13.7534 6.45254 13.6917 6.38831 13.6284 6.32508C13.5652 6.26184 13.501 6.20008 13.4358 6.13882L13.3701 6.07855L13.3019 6.01877C13.2525 5.9748 13.2031 5.93132 13.1537 5.88834C13.1112 5.85277 13.0687 5.8172 13.0257 5.78311C11.9412 4.9017 10.6285 4.34661 9.24064 4.1825C7.85278 4.01839 6.44686 4.252 5.18666 4.85614C3.92646 5.46028 2.86386 6.41006 2.12265 7.59484C1.38145 8.77962 0.992155 10.1506 1.00012 11.5481C1.00329 12.906 1.38592 14.2359 2.10481 15.3879L1.50701 17.0987L1.04952 18.4149C1.02298 18.4869 1.0182 18.5652 1.03576 18.6399C1.05333 18.7147 1.09248 18.7826 1.14833 18.8353C1.20423 18.889 1.27469 18.9251 1.35094 18.9391C1.42719 18.953 1.50586 18.9443 1.57717 18.9139L2.78363 18.3902L4.34926 17.7104C5.54844 18.5171 6.9601 18.9497 8.40538 18.9534C9.37948 18.9541 10.3442 18.7628 11.2443 18.3903C12.1443 18.0179 12.9622 17.4716 13.651 16.7829C14.3398 16.0941 14.886 15.2762 15.2584 14.3761C15.6309 13.476 15.8222 12.5114 15.8215 11.5373C15.8175 10.1193 15.4007 8.73326 14.622 7.54833ZM9.19635 15.6803C9.19635 15.7675 9.16173 15.851 9.10012 15.9126C9.03851 15.9743 8.95494 16.0089 8.86781 16.0089H8.05214C8.00902 16.0089 7.96632 16.0004 7.92648 15.9839C7.88665 15.9673 7.85047 15.9431 7.82 15.9126C7.78953 15.8821 7.76538 15.8459 7.74892 15.806C7.73246 15.7662 7.72403 15.7235 7.72409 15.6803V14.8652C7.72403 14.822 7.73246 14.7793 7.74892 14.7395C7.76538 14.6996 7.78953 14.6634 7.82 14.6329C7.85047 14.6024 7.88665 14.5782 7.92648 14.5616C7.96632 14.5451 8.00902 14.5366 8.05214 14.5366H8.86781C8.95494 14.5366 9.03851 14.5712 9.10012 14.6328C9.16173 14.6945 9.19635 14.778 9.19635 14.8652V15.6803ZM11.3958 10.314C11.3958 10.3323 11.3929 10.3501 11.3904 10.3674C11.3879 10.3847 11.3855 10.4099 11.382 10.4311C11.382 10.4449 11.3781 10.4588 11.3756 10.4721C11.3731 10.4854 11.3697 10.5057 11.3662 10.5215C11.3627 10.5373 11.3578 10.564 11.3529 10.5847C11.3499 10.5956 11.3474 10.6065 11.3445 10.6169C11.3415 10.6272 11.3375 10.646 11.3331 10.6598C11.3287 10.6737 11.3227 10.6974 11.3163 10.7162C11.3099 10.7349 11.3044 10.7537 11.298 10.772C11.2974 10.7744 11.2966 10.7767 11.2956 10.7789C11.2896 10.7962 11.2832 10.813 11.2768 10.8283L11.2679 10.8505C11.2634 10.8619 11.259 10.8733 11.2541 10.8841C11.2491 10.895 11.2422 10.9118 11.2358 10.9251C11.2244 10.9513 11.2121 10.9745 11.1987 11.0022C11.1918 11.0165 11.1839 11.0314 11.176 11.0457C11.1681 11.06 11.1597 11.0753 11.1513 11.0902C11.1429 11.105 11.134 11.1203 11.1246 11.1351C11.1152 11.1499 11.1068 11.1643 11.0974 11.1786C11.0881 11.1929 11.0792 11.2067 11.0698 11.2206C11.0411 11.2636 11.0105 11.3056 10.9789 11.3466C10.965 11.3648 10.9507 11.3826 10.9364 11.4004C10.9221 11.4182 10.9018 11.4424 10.884 11.4627C10.8593 11.4913 10.8346 11.5195 10.8089 11.5471C10.552 11.8248 10.2487 12.0634 9.97447 12.3164C9.94829 12.3401 9.92507 12.3658 9.8974 12.389C9.88192 12.4035 9.8666 12.4183 9.85145 12.4335C9.83614 12.4483 9.82132 12.4631 9.80649 12.4784L9.78179 12.5036C9.77191 12.5135 9.76252 12.5229 9.75363 12.5328C9.723 12.5657 9.69336 12.5986 9.6647 12.6316C9.65038 12.6479 9.63605 12.6647 9.62222 12.681C9.60838 12.6973 9.59455 12.7146 9.58121 12.7304C9.56787 12.7462 9.54762 12.7734 9.53181 12.7951C9.52291 12.807 9.51402 12.8193 9.50611 12.8317C9.49821 12.844 9.48882 12.8564 9.48092 12.8687C9.47301 12.8811 9.46461 12.8929 9.45671 12.9053C9.4488 12.9176 9.43695 12.9364 9.42756 12.9547C9.41817 12.973 9.40978 12.9843 9.40187 12.9996C9.39397 13.015 9.38804 13.0243 9.38161 13.0372C9.37519 13.05 9.36828 13.0624 9.36235 13.0747V13.0777C9.35345 13.0955 9.34456 13.1138 9.33666 13.1325C9.32085 13.1676 9.30603 13.2037 9.29269 13.2407C9.28478 13.2635 9.27688 13.2862 9.26996 13.3099V13.3148C9.25959 13.3474 9.25069 13.3801 9.24328 13.4137C9.23587 13.4472 9.22994 13.4705 9.225 13.5001C9.225 13.5149 9.22006 13.5298 9.21809 13.5446C9.21809 13.552 9.21562 13.5599 9.21463 13.5673C9.20566 13.6316 9.17369 13.6905 9.12463 13.733C9.07557 13.7755 9.01276 13.7988 8.94784 13.7985H8.00915C7.97208 13.7984 7.93543 13.7907 7.90149 13.7758C7.86754 13.7609 7.83703 13.7392 7.81186 13.7119C7.78668 13.6847 7.76739 13.6526 7.75518 13.6176C7.74297 13.5826 7.7381 13.5455 7.74089 13.5085C7.74064 13.5052 7.74064 13.5019 7.74089 13.4986C7.74089 13.4749 7.74533 13.4517 7.7478 13.429C7.7483 13.4207 7.74929 13.4124 7.75077 13.4043C7.75077 13.3899 7.75373 13.3756 7.75571 13.3618C7.75571 13.3405 7.76114 13.3203 7.76411 13.3C7.76411 13.2926 7.76658 13.2857 7.76757 13.2788C7.76855 13.2719 7.76757 13.2788 7.76757 13.2763C7.77152 13.2526 7.77498 13.2269 7.77992 13.2062C7.77968 13.203 7.77968 13.1999 7.77992 13.1968C7.7842 13.1724 7.78914 13.1487 7.79474 13.1256C7.79474 13.1162 7.79869 13.1068 7.80067 13.098C7.80528 13.0772 7.81022 13.0569 7.81549 13.0372C7.81549 13.0303 7.81895 13.0234 7.82092 13.0164C7.82537 12.9982 7.83031 12.9804 7.83624 12.9626C7.83819 12.9535 7.84083 12.9446 7.84414 12.9359C7.84958 12.9157 7.856 12.8954 7.86292 12.8761C7.86445 12.8701 7.86643 12.8641 7.86885 12.8583C7.86994 12.8545 7.87126 12.8507 7.8728 12.847C7.87774 12.8322 7.88317 12.8173 7.88861 12.8025C7.89048 12.7964 7.89279 12.7905 7.89552 12.7847C7.90195 12.7655 7.90936 12.7467 7.91776 12.7279C7.9198 12.7217 7.92228 12.7155 7.92517 12.7096C7.9311 12.6948 7.93752 12.68 7.94394 12.6657C7.95036 12.6513 7.95382 12.6429 7.95926 12.6321C7.97408 12.6005 7.98939 12.5693 8.0052 12.5392C8.01261 12.5249 8.02002 12.5105 8.02793 12.4967L8.03484 12.4844C8.04473 12.4666 8.05461 12.4498 8.06498 12.4349C8.07536 12.4201 8.08919 12.3949 8.10154 12.3757C8.12526 12.3381 8.15095 12.3016 8.17614 12.2665C8.18998 12.2472 8.20381 12.2284 8.21814 12.2102C8.25964 12.1563 8.30212 12.1054 8.34708 12.0565L8.37277 12.0283C8.42317 11.974 8.47504 11.9221 8.5284 11.8727L8.57533 11.8297C8.60695 11.8011 8.63857 11.7734 8.67068 11.7467L8.72009 11.7062L8.76949 11.6672L8.8189 11.6282L8.8683 11.5901L8.94883 11.5274L9.04764 11.4503L9.05307 11.4439C9.08272 11.4217 9.11187 11.3994 9.14052 11.3767C9.18251 11.3441 9.22401 11.312 9.26403 11.2779L9.2833 11.2626L9.32974 11.2245C9.34506 11.2122 9.35988 11.1993 9.3747 11.1865C9.40434 11.1613 9.43349 11.1371 9.46165 11.1084C9.48981 11.0798 9.51105 11.0625 9.53329 11.0393L9.54366 11.0284C9.5575 11.0146 9.57034 11.0012 9.58269 10.9874C9.59504 10.9736 9.60789 10.9597 9.61975 10.9454C9.64 10.9222 9.65927 10.896 9.67804 10.8743C9.68644 10.8639 9.69385 10.8535 9.70126 10.8426L9.72646 10.8076C9.73535 10.7947 9.74375 10.7814 9.75215 10.768C9.76055 10.7547 9.77142 10.7364 9.78031 10.7186C9.7892 10.7008 9.7981 10.6865 9.80649 10.6692C9.81489 10.6519 9.81885 10.645 9.82428 10.6327C9.83466 10.6104 9.84454 10.5872 9.85392 10.5635C9.85886 10.5507 9.8638 10.5378 9.86825 10.5245C9.87566 10.5032 9.88208 10.4815 9.88851 10.4593C9.89493 10.437 9.89839 10.4217 9.90283 10.4019C9.90728 10.3822 9.91123 10.3634 9.91469 10.3432L9.91914 10.3135C9.91914 10.3026 9.9226 10.2913 9.92358 10.2799C9.92358 10.2602 9.92803 10.2399 9.92951 10.2196C9.94338 9.97672 9.89781 9.73408 9.79674 9.51275C9.69567 9.29141 9.54216 9.09806 9.3495 8.94945C9.18467 8.82027 8.99311 8.72946 8.78876 8.68365C8.43078 8.60278 8.05552 8.65791 7.73593 8.83834C7.41635 9.01877 7.17528 9.3116 7.0596 9.65989C7.01747 9.79233 6.93462 9.90809 6.82284 9.99068C6.71107 10.0733 6.57607 10.1185 6.4371 10.1198H6.28642C6.18217 10.1197 6.07938 10.0953 5.98622 10.0486C5.89305 10.0018 5.81208 9.93394 5.74973 9.85039C5.68738 9.76685 5.64538 9.66991 5.62705 9.56729C5.60872 9.46466 5.61458 9.35918 5.64416 9.25922C5.85413 8.57333 6.30697 7.98753 6.91785 7.61156C7.52873 7.23559 8.25574 7.09525 8.96266 7.21683C10.2185 7.42334 11.1962 8.48949 11.3781 9.74882C11.4061 9.93586 11.4121 10.1256 11.3958 10.314Z" fill="#27303F"/>
</svg>
