<svg width="24" height="24" viewBox="0 0 24 24" fill="none" xmlns="http://www.w3.org/2000/svg">
<path d="M4 5.18613C4 4.55351 4.52962 4.04001 5.1825 4.04001H18.8175C19.4706 4.04001 20 4.55351 20 5.18613V18.8941C20 19.5269 19.4706 20.04 18.8175 20.04H5.1825C4.52969 20.04 4 19.5269 4 18.8943V5.18595V5.18613Z" fill="#006699"/>
<path d="M8.86228 17.4299V10.2266H6.46803V17.4299H8.86253H8.86228ZM7.66565 9.24333C8.5004 9.24333 9.02009 8.69021 9.02009 7.99896C9.00447 7.29196 8.5004 6.75427 7.68153 6.75427C6.86209 6.75427 6.3269 7.29196 6.3269 7.9989C6.3269 8.69015 6.8464 9.24327 7.64997 9.24327H7.66547L7.66565 9.24333ZM10.1875 17.4299H12.5816V13.4077C12.5816 13.1927 12.5972 12.9771 12.6605 12.8236C12.8335 12.3933 13.2274 11.9478 13.889 11.9478C14.7551 11.9478 15.1018 12.6083 15.1018 13.5768V17.4299H17.4958V13.2998C17.4958 11.0873 16.3148 10.0578 14.7396 10.0578C13.4482 10.0578 12.881 10.7796 12.5658 11.2712H12.5818V10.2269H10.1877C10.2189 10.9026 10.1875 17.4301 10.1875 17.4301L10.1875 17.4299Z" fill="white"/>
</svg>
