<svg width="24" height="24" viewBox="0 0 24 24" fill="none" xmlns="http://www.w3.org/2000/svg">
<path opacity="0.4" d="M6.93715 12.2036C8.39475 12.2036 9.58058 10.6567 9.58058 9.19885C9.58058 7.74125 8.39475 6.55542 6.93715 6.55542C5.47955 6.55542 4.29395 7.74125 4.29395 9.19885C4.29395 10.6567 5.47955 12.2036 6.93715 12.2036Z" fill="#27303F"/>
<path opacity="0.4" d="M10.5566 13.2069C10.5974 13.1596 10.6394 13.1139 10.6818 13.0678C10.1951 12.6384 9.59129 12.3388 8.92162 12.2307C8.4087 12.6212 7.76918 12.8538 7.07632 12.8538H6.79806C6.10521 12.8538 5.46545 12.6212 4.95276 12.2307C3.27836 12.5013 2 13.9527 2 15.7031C2 16.6645 4.21051 17.4445 6.93719 17.4445C7.79538 17.4445 8.60209 17.3671 9.30515 17.2312C9.26434 17.081 9.24069 16.9249 9.24069 16.7612C9.24046 15.4571 9.70793 14.195 10.5566 13.2069Z" fill="#27303F"/>
<path d="M15.3331 11.9879C15.7034 12.1625 16.1036 12.262 16.5215 12.262C16.9398 12.262 17.3403 12.1623 17.711 11.9875C19 11.379 19.9199 9.85441 19.9199 8.3989C19.9199 6.52484 18.3955 5 16.5215 5C14.6474 5 13.123 6.52508 13.123 8.3989C13.123 9.85488 14.0434 11.38 15.3331 11.9879Z" fill="#27303F"/>
<path d="M19.0728 12.2968C18.7616 12.5336 18.4131 12.7237 18.0391 12.8601C17.6208 13.0126 17.1707 13.098 16.7004 13.098H16.3426C15.8731 13.098 15.423 13.0129 15.0052 12.8607C14.6307 12.7244 14.2815 12.5343 13.9698 12.2968C12.9106 12.4679 11.9752 13.0071 11.2976 13.7788C10.5983 14.575 10.1737 15.618 10.1737 16.761C10.1737 16.8435 10.1874 16.9251 10.2122 17.0056C10.5575 18.1267 13.2501 19 16.5214 19C20.027 19 22.8691 17.9971 22.8691 16.761C22.8691 14.5103 21.2253 12.6446 19.0728 12.2968Z" fill="#27303F"/>
</svg>
