<svg width="24" height="24" viewBox="0 0 24 24" fill="none" xmlns="http://www.w3.org/2000/svg">
<path opacity="0.4" d="M21.492 16.8057C22.0643 15.5981 22.1567 14.2183 21.7506 12.9451C21.3446 11.672 20.4703 10.6005 19.3045 9.9472C19.487 10.6852 19.5788 11.4428 19.578 12.203C19.578 15.2854 18.0823 18.0233 15.7788 19.7346C16.6874 19.9 17.6235 19.8247 18.494 19.5162L21.3526 19.817C21.4447 19.8267 21.5377 19.8145 21.6242 19.7813C21.7106 19.7481 21.788 19.6948 21.8499 19.626C21.9118 19.5571 21.9565 19.4745 21.9803 19.385C22.0041 19.2955 22.0064 19.2017 21.9869 19.1111L21.492 16.8057Z" fill="#27303F"/>
<path d="M18.4061 12.203C18.4061 7.68003 14.7261 4 10.2031 4C5.6801 4 2.00007 7.68003 2.00007 12.203C1.99901 13.6301 2.37108 15.0327 3.07936 16.2717L2.02664 19.6455C1.99497 19.7469 1.99147 19.855 2.0165 19.9582C2.04153 20.0614 2.09416 20.1559 2.16875 20.2316C2.24334 20.3072 2.33708 20.3611 2.43996 20.3876C2.54284 20.4141 2.65097 20.4121 2.7528 20.3818C2.7692 20.3767 4.34418 19.9092 6.18478 19.3556C7.41177 20.0451 8.79567 20.4068 10.2031 20.406C14.7261 20.406 18.4061 16.726 18.4061 12.203ZM7.07813 8.88275H10.2031C10.3585 8.88275 10.5075 8.94448 10.6174 9.05436C10.7273 9.16424 10.789 9.31328 10.789 9.46867C10.789 9.62407 10.7273 9.77311 10.6174 9.88299C10.5075 9.99287 10.3585 10.0546 10.2031 10.0546H7.07813C6.92273 10.0546 6.7737 9.99287 6.66381 9.88299C6.55393 9.77311 6.4922 9.62407 6.4922 9.46867C6.4922 9.31328 6.55393 9.16424 6.66381 9.05436C6.7737 8.94448 6.92273 8.88275 7.07813 8.88275ZM13.328 15.5233H7.07813C6.92273 15.5233 6.7737 15.4615 6.66381 15.3517C6.55393 15.2418 6.4922 15.0927 6.4922 14.9373C6.4922 14.782 6.55393 14.6329 6.66381 14.523C6.7737 14.4132 6.92273 14.3514 7.07813 14.3514H13.328C13.4834 14.3514 13.6325 14.4132 13.7424 14.523C13.8522 14.6329 13.914 14.782 13.914 14.9373C13.914 15.0927 13.8522 15.2418 13.7424 15.3517C13.6325 15.4615 13.4834 15.5233 13.328 15.5233ZM13.328 12.7889H7.07813C6.92273 12.7889 6.7737 12.7272 6.66381 12.6173C6.55393 12.5074 6.4922 12.3584 6.4922 12.203C6.4922 12.0476 6.55393 11.8986 6.66381 11.7887C6.7737 11.6788 6.92273 11.6171 7.07813 11.6171H13.328C13.4834 11.6171 13.6325 11.6788 13.7424 11.7887C13.8522 11.8986 13.914 12.0476 13.914 12.203C13.914 12.3584 13.8522 12.5074 13.7424 12.6173C13.6325 12.7272 13.4834 12.7889 13.328 12.7889Z" fill="#27303F"/>
</svg>
