<svg width="24" height="24" viewBox="0 0 24 24" fill="none" xmlns="http://www.w3.org/2000/svg">
<path d="M18.7592 17.6757L16.2482 15.1818C18.2088 12.6708 18.0025 9.09337 15.7494 6.84029C14.5627 5.65356 12.9803 5 11.2948 5C9.60934 5 8.02703 5.65356 6.8403 6.84029C5.65356 8.02703 5 9.60934 5 11.2948C5 12.9803 5.65356 14.5627 6.8403 15.7494C8.02703 16.9361 9.60934 17.5897 11.2948 17.5897C12.688 17.5897 14.0639 17.1253 15.1646 16.2482L17.6585 18.7764C17.8133 18.9312 18.0025 19 18.2088 19C18.4152 19 18.6044 18.914 18.7592 18.7764C19.0688 18.484 19.0688 17.9853 18.7592 17.6757ZM16.0418 11.2948C16.0418 12.5676 15.543 13.7543 14.6486 14.6487C13.7543 15.543 12.5504 16.0418 11.2948 16.0418C10.0393 16.0418 8.83538 15.543 7.94103 14.6487C7.04668 13.7543 6.54791 12.5504 6.54791 11.2948C6.54791 10.0221 7.04668 8.83538 7.94103 7.94103C8.83538 7.04668 10.0393 6.54791 11.2948 6.54791C12.5676 6.54791 13.7543 7.04668 14.6486 7.94103C15.543 8.83538 16.0418 10.0221 16.0418 11.2948Z" fill="#97A6BA"/>
</svg>
