<svg width="24" height="24" viewBox="0 0 24 24" fill="none" xmlns="http://www.w3.org/2000/svg">
<path d="M21.5794 10.081L19.96 9.76553C19.7708 9.7445 19.6446 9.59729 19.5815 9.42904C19.4974 9.17668 19.3922 8.94534 19.266 8.71401C19.1819 8.54576 19.2029 8.35649 19.3081 8.20927L20.2334 6.84229C20.3807 6.63199 20.3386 6.35859 20.1703 6.19035L17.9621 3.98215C17.7939 3.8139 17.5205 3.77184 17.3102 3.91905L15.9432 4.8444C15.796 4.94955 15.5857 4.94955 15.4385 4.88646C15.2072 4.7813 14.9548 4.67615 14.7234 4.59203C14.5552 4.52894 14.429 4.38173 14.387 4.21348L14.0715 2.59413C14.0294 2.34177 13.8191 2.17352 13.5668 2.17352H10.4332C10.2019 2.17352 9.97056 2.34177 9.9285 2.59413L9.61304 4.21348C9.57098 4.40276 9.44479 4.52894 9.27655 4.59203C9.02418 4.67615 8.79285 4.7813 8.56151 4.88646C8.39327 4.97058 8.204 4.94955 8.05678 4.8444L6.6898 3.91905C6.4795 3.77184 6.2061 3.8139 6.03786 3.98215L3.82965 6.19035C3.66141 6.35859 3.64038 6.63199 3.76656 6.84229L4.6919 8.20927C4.79706 8.35649 4.79706 8.54576 4.73396 8.71401C4.62881 8.94534 4.52366 9.19771 4.41851 9.42904C4.35542 9.59729 4.2082 9.72347 4.03996 9.76553L2.42061 10.081C2.18927 10.1231 2 10.3334 2 10.5857V13.7193C2 13.9716 2.16824 14.1819 2.42061 14.224L4.03996 14.5395C4.22923 14.5605 4.35542 14.7077 4.41851 14.8759C4.50263 15.1283 4.60778 15.3596 4.73396 15.591C4.81809 15.7592 4.79706 15.9485 4.6919 16.0957L3.76656 17.4627C3.61935 17.673 3.66141 17.9464 3.82965 18.1146L6.03786 20.3228C6.2061 20.4911 6.4795 20.5331 6.6898 20.3859L8.05678 19.4606C8.204 19.3554 8.4143 19.3554 8.56151 19.4185C8.79285 19.5237 9.04522 19.6288 9.27655 19.713C9.44479 19.776 9.57098 19.9233 9.61304 20.0915L9.9285 21.7109C9.97056 21.9632 10.1809 22.1315 10.4332 22.1315H13.5668C13.7981 22.1315 14.0294 21.9632 14.0715 21.7109L14.387 20.0915C14.429 19.9022 14.5552 19.776 14.7234 19.713C14.9758 19.6288 15.2072 19.5237 15.4385 19.4185C15.6067 19.3344 15.796 19.3554 15.9432 19.4606L17.3102 20.3859C17.5205 20.5331 17.7939 20.4911 17.9621 20.3228L20.1703 18.1146C20.3386 17.9464 20.3596 17.673 20.2334 17.4627L19.3081 16.0957C19.2029 15.9485 19.2029 15.7592 19.266 15.591C19.3712 15.3596 19.4763 15.1073 19.5815 14.8759C19.6446 14.7077 19.7918 14.5815 19.96 14.5395L21.5794 14.224C21.8107 14.1819 22 13.9716 22 13.7193V10.5857C22 10.3334 21.8318 10.1231 21.5794 10.081ZM12.0105 17.1683C9.23449 17.1683 6.98423 14.918 6.98423 12.142C6.98423 9.36595 9.23449 7.13672 12.0105 7.13672C14.7865 7.13672 17.0368 9.36595 17.0368 12.142C17.0368 14.918 14.7865 17.1683 12.0105 17.1683Z" fill="#27303F"/>
<path opacity="0.4" d="M12.0105 8.65094C10.0967 8.65094 8.51941 10.2072 8.51941 12.142C8.51941 14.0558 10.0757 15.6331 12.0105 15.6331C13.9453 15.6331 15.5015 14.0558 15.5015 12.142C15.5015 10.2282 13.9242 8.65094 12.0105 8.65094Z" fill="#27303F"/>
</svg>
