<svg width="24" height="24" viewBox="0 0 24 24" fill="none" xmlns="http://www.w3.org/2000/svg">
<path fill-rule="evenodd" clip-rule="evenodd" d="M9.8546 4C8.97191 4.00065 8.25754 4.71698 8.25819 5.59967C8.25754 6.48237 8.97256 7.1987 9.85525 7.19935H11.4523V5.60033C11.453 4.71764 10.7379 4.0013 9.8546 4C9.85525 4 9.85525 4 9.8546 4V4ZM9.8546 8.26667H5.59707C4.71438 8.26732 3.99935 8.98365 4 9.86634C3.9987 10.749 4.71372 11.4654 5.59641 11.4667H9.8546C10.7373 11.466 11.4523 10.7497 11.4517 9.86699C11.4523 8.98365 10.7373 8.26732 9.8546 8.26667Z" fill="#36C5F0"/>
<path fill-rule="evenodd" clip-rule="evenodd" d="M19.9683 9.86634C19.969 8.98365 19.2539 8.26732 18.3712 8.26667C17.4885 8.26732 16.7735 8.98365 16.7741 9.86634V11.4667H18.3712C19.2539 11.466 19.969 10.7497 19.9683 9.86634ZM15.7101 9.86634V5.59967C15.7107 4.71764 14.9963 4.0013 14.1136 4C13.2309 4.00065 12.5159 4.71698 12.5165 5.59967V9.86634C12.5152 10.749 13.2303 11.4654 14.113 11.4667C14.9957 11.466 15.7107 10.7497 15.7101 9.86634Z" fill="#2EB67D"/>
<path fill-rule="evenodd" clip-rule="evenodd" d="M14.1129 20C14.9956 19.9993 15.7106 19.283 15.71 18.4003C15.7106 17.5176 14.9956 16.8013 14.1129 16.8006H12.5158V18.4003C12.5152 19.2824 13.2302 19.9987 14.1129 20ZM14.1129 15.7327H18.3711C19.2538 15.732 19.9689 15.0157 19.9682 14.133C19.9695 13.2503 19.2545 12.534 18.3718 12.5327H14.1135C13.2308 12.5333 12.5158 13.2497 12.5165 14.1323C12.5158 15.0157 13.2302 15.732 14.1129 15.7327Z" fill="#ECB22E"/>
<path fill-rule="evenodd" clip-rule="evenodd" d="M4.00012 14.1329C3.99947 15.0156 4.7145 15.732 5.59719 15.7326C6.47988 15.732 7.1949 15.0156 7.19425 14.1329V12.5332H5.59719C4.7145 12.5339 3.99947 13.2502 4.00012 14.1329ZM8.25831 14.1329V18.3997C8.257 19.2824 8.97203 19.9987 9.85472 20C10.7374 19.9993 11.4524 19.283 11.4518 18.4003V14.1342C11.4531 13.2515 10.7381 12.5352 9.85537 12.5339C8.97203 12.5339 8.25766 13.2502 8.25831 14.1329C8.25831 14.1329 8.25831 14.1336 8.25831 14.1329Z" fill="#E01E5A"/>
</svg>
