<svg width="21" height="20" viewBox="0 0 21 20" fill="none" xmlns="http://www.w3.org/2000/svg">
<path opacity="0.4" fill-rule="evenodd" clip-rule="evenodd" d="M18 7.72729V14.1897C18 14.3676 18 14.4862 17.9407 14.6641L14.1462 10.8696L18 7.72729Z" fill="#27303F"/>
<path fill-rule="evenodd" clip-rule="evenodd" d="M4.36364 5H16.6364C17.4071 5 18 5.59289 18 6.36364V6.60079L11.9526 11.581C10.8854 12.4704 10.1739 12.4704 9.10672 11.581L3 6.60079V6.36364C3 5.59289 3.59289 5 4.36364 5Z" fill="#27303F"/>
<path opacity="0.4" fill-rule="evenodd" clip-rule="evenodd" d="M17.2885 15.3754C17.1106 15.494 16.8735 15.5533 16.6363 15.5533H4.3636C4.12645 15.5533 3.88929 15.494 3.71143 15.3754L7.62447 11.4624L8.5138 12.2332C9.93672 13.3596 11.1225 13.3596 12.4861 12.2332L13.3755 11.4624L17.2885 15.3754Z" fill="#27303F"/>
<path opacity="0.4" fill-rule="evenodd" clip-rule="evenodd" d="M3.05929 14.6641C3.05929 14.4862 3 14.3676 3 14.1897V7.72729L6.85375 10.8696L3.05929 14.6641Z" fill="#27303F"/>
</svg>
