<svg width="24" height="24" viewBox="0 0 24 24" fill="none" xmlns="http://www.w3.org/2000/svg">
<path opacity="0.4" d="M3.06093 10.4427C3.29693 11.0768 3.67026 11.6923 4.13133 12.1437C4.39266 12.3987 4.68199 12.6005 4.99078 12.7232C5.20252 12.8072 5.42411 12.8536 5.65158 12.8536C5.87904 12.8536 6.10038 12.8075 6.31291 12.7232C6.63211 12.5963 6.93157 12.3848 7.19983 12.1165C7.64996 11.6675 8.01316 11.0611 8.24516 10.4376C8.42276 10.3854 8.60916 10.0523 8.68542 9.62696C8.76755 9.1651 8.69022 8.76297 8.51209 8.6955C8.51796 8.5827 8.52222 8.46884 8.52222 8.35204C8.51742 6.67925 7.53663 5.70646 5.98971 5.60273C4.64145 5.51233 3.62546 6.04806 3.1628 6.93872C3.00733 7.23845 2.91827 7.61338 2.88334 8.02004C2.8316 8.23204 2.80174 8.45204 2.80174 8.6803H2.8068C2.8068 8.68217 2.8068 8.68404 2.80654 8.6859C2.80307 8.68617 2.79987 8.68644 2.79667 8.68724C2.59934 8.72164 2.50947 9.1427 2.5964 9.62723C2.67454 10.0723 2.8756 10.4168 3.06093 10.4427Z" fill="#27303F"/>
<path opacity="0.4" d="M8.57846 16.0792C8.86593 15.0896 9.27099 14.279 9.78218 13.6694C9.88192 13.551 9.98245 13.4443 10.083 13.3467C9.66272 13.0219 9.28832 12.9846 9.15686 12.9542C8.65606 12.8371 8.04967 12.8864 7.72594 12.7856C7.68727 13.1035 6.76434 14.1472 6.15955 14.803L5.89742 13.7915C6.09448 13.675 6.13741 13.4187 6.13741 13.2056H5.14302C5.14302 13.4168 5.18596 13.6712 5.37875 13.7886L5.12089 14.8024C4.51556 14.1475 3.59264 13.1032 3.55477 12.7856C3.2305 12.8864 2.62438 12.8371 2.12305 12.9539C1.95532 12.9928 1.38279 13.044 0.828658 13.704C0.54386 14.0435 0.263596 14.5427 0.0462641 15.2899C-0.0129354 15.495 -0.0137354 15.7099 0.0347975 15.9115C0.0579973 16.0054 0.0870637 16.096 0.13133 16.18C0.654792 17.1704 3.4089 17.4757 5.63662 17.4757C5.63769 17.4757 5.63902 17.4757 5.64009 17.4757C5.64009 17.4757 5.64249 17.4757 5.64355 17.4757C6.58034 17.4757 7.6094 17.4219 8.52726 17.2853C8.44966 16.8827 8.46593 16.4683 8.57846 16.0792Z" fill="#27303F"/>
<path d="M16.412 14.4326L16.0805 15.7361C15.3024 14.8945 14.1155 13.5515 14.067 13.1433C13.6502 13.2729 12.871 13.2094 12.2264 13.3595C12.0107 13.4097 11.275 13.4755 10.5624 14.3243C10.196 14.7611 9.83579 15.4022 9.55659 16.3632C9.48032 16.6264 9.47926 16.903 9.54165 17.1624C9.57125 17.283 9.60859 17.3998 9.66565 17.5075C10.3387 18.7806 13.8798 19.1736 16.744 19.1736C16.7453 19.1736 16.7469 19.1736 16.7469 19.1736C16.7491 19.1736 16.7515 19.1736 16.7525 19.1736C19.6162 19.1736 23.1575 18.7824 23.8306 17.5075C23.8831 17.408 23.9191 17.3035 23.9482 17.1955C24.0178 16.928 24.0194 16.6384 23.9399 16.3643C23.6431 15.3411 23.2551 14.6787 22.8637 14.2427C22.1741 13.4697 21.4794 13.4083 21.2693 13.3595C20.625 13.2091 19.8456 13.2729 19.4293 13.143C19.38 13.5518 18.1931 14.8939 17.4157 15.7369L17.0784 14.4366C17.3315 14.2865 17.3869 13.9569 17.3869 13.6833H16.1083C16.1088 13.955 16.164 14.2819 16.412 14.4326Z" fill="#27303F"/>
<path d="M15.0173 12.5061C15.0829 12.5621 15.1507 12.6141 15.2189 12.6648C15.4397 12.8291 15.6712 12.9669 15.9133 13.0632C16.1858 13.1712 16.4704 13.2309 16.7632 13.2309C17.0557 13.2309 17.34 13.1715 17.6133 13.0632C17.8565 12.9664 18.0906 12.8307 18.313 12.6648C18.3685 12.6237 18.4232 12.5811 18.477 12.536C18.5714 12.4568 18.664 12.3725 18.7533 12.2827C18.8557 12.1811 18.9528 12.0709 19.0477 11.9579C19.4904 11.4283 19.8522 10.7845 20.0976 10.1243C20.3261 10.0573 20.5658 9.62908 20.6639 9.08215C20.7695 8.48829 20.6698 7.97123 20.4407 7.88456C20.4485 7.7395 20.4541 7.5931 20.4541 7.44297C20.4477 5.29152 19.1861 4.04113 17.1978 3.90779C15.4643 3.79126 14.1579 4.48059 13.5632 5.62538C13.3632 6.01071 13.2483 6.49257 13.204 7.01524C13.1373 7.28803 13.0987 7.57096 13.0987 7.86456H13.1048C13.1048 7.86696 13.1048 7.86936 13.1045 7.87149C13.1 7.87176 13.096 7.87256 13.092 7.8731C12.8379 7.91763 12.7227 8.45869 12.8341 9.08162C12.9344 9.65415 13.1933 10.0973 13.4312 10.1304C13.6749 10.7856 14.0339 11.4229 14.4723 11.9501C14.58 12.0789 14.6907 12.2035 14.8075 12.3179C14.876 12.3843 14.9464 12.4456 15.0173 12.5061Z" fill="#27303F"/>
</svg>
