<svg width="24" height="24" viewBox="0 0 24 24" fill="none" xmlns="http://www.w3.org/2000/svg">
<path d="M8.41551 19C14.9139 19 18.4677 13.6143 18.4677 8.94408C18.4677 8.79113 18.4646 8.63888 18.4577 8.48726C19.1492 7.98673 19.7459 7.367 20.22 6.65711C19.587 6.93865 18.9058 7.12814 18.1911 7.21357C18.9206 6.77604 19.4805 6.08385 19.7447 5.25875C19.0512 5.67032 18.2925 5.96045 17.5013 6.11664C16.8566 5.42966 15.9388 5 14.9224 5C12.9714 5 11.3893 6.58277 11.3893 8.53377C11.3893 8.81115 11.4203 9.08086 11.4809 9.33965C8.5446 9.19184 5.94087 7.78548 4.19833 5.64701C3.88448 6.18637 3.7194 6.79937 3.71995 7.4234C3.71995 8.64959 4.34365 9.73204 5.29215 10.3653C4.7311 10.3482 4.18237 10.1966 3.69209 9.92327C3.69157 9.93811 3.69157 9.95257 3.69157 9.96843C3.69157 11.68 4.90935 13.1091 6.52593 13.4329C6.22232 13.5157 5.90902 13.5575 5.59434 13.5573C5.36708 13.5573 5.14561 13.5349 4.93035 13.4936C5.38014 14.8979 6.68438 15.9198 8.23072 15.9483C7.0215 16.8964 5.49827 17.4612 3.84273 17.4612C3.5611 17.4614 3.2797 17.445 3 17.4122C4.56359 18.4148 6.4202 18.9998 8.41569 18.9998" fill="#1DA1F2"/>
</svg>
